
<svg xmlns="http://www.w3.org/2000/svg" viewBox="0 0 1000 1000">
  <rect width="1000" height="1000" fill="#FF2D55"/>
  <path d="M500 200C380 200 280 300 280 420C280 530 350 630 440 660C440 660 410 740 350 830C346 837 346 845 350 852C354 859 362 863 369 863H631C638 863 646 859 650 852C654 845 654 837 650 830C590 740 560 660 560 660C650 630 720 530 720 420C720 300 620 200 500 200Z" fill="white"/>
  <path d="M500 550C430 550 380 500 380 430C380 360 430 310 500 310C570 310 620 360 620 430C620 500 570 550 500 550Z" fill="#FF2D55"/>
</svg>
