
<svg xmlns="http://www.w3.org/2000/svg" viewBox="0 0 1000 1000">
  <rect width="1000" height="1000" fill="#FFFFFF"/>
  <path d="M500 180C320 180 180 320 180 500C180 680 320 820 500 820C680 820 820 680 820 500C820 320 680 180 500 180Z" fill="#0066D9"/>
  <path d="M500 280C376 280 280 376 280 500C280 624 376 720 500 720C624 720 720 624 720 500C720 376 624 280 500 280Z" fill="#FFFFFF"/>
  <path d="M500 326C480 326 464 342 464 362V500C464 520 480 536 500 536H638C658 536 674 520 674 500C674 404 596 326 500 326Z" fill="#EA4335"/>
  <path d="M464 500V638C464 658 480 674 500 674C596 674 674 596 674 500C674 480 658 464 638 464H500C480 464 464 480 464 500Z" fill="#4285F4"/>
  <path d="M500 674C480 674 464 658 464 638V500C464 480 480 464 500 464H638C658 464 674 480 674 500C674 596 596 674 500 674Z" fill="#FBBC04"/>
  <path d="M464 362C464 342 480 326 500 326C596 326 674 404 674 500C674 520 658 536 638 536H500C480 536 464 520 464 500V362Z" fill="#34A853"/>
</svg>
